{"accessors" : [{"bufferView" : 0, "byteOffset" : 0, "componentType" : 5123, "count" : 11478, "type" : "SCALAR", "max" : [9671], "min" : [0]}, {"bufferView" : 1, "byteOffset" : 0, "componentType" : 5126, "count" : 9672, "type" : "VEC3", "max" : [-308.7952575683594, 23.00433921813965, 303.82818603515625], "min" : [-345.5203857421875, 3.4128050804138184, 240.06304931640625], "name" : "POSITION"}, {"bufferView" : 1, "byteOffset" : 12, "componentType" : 5126, "count" : 9672, "type" : "VEC3", "max" : [1.0000042915344238, 1.0000044107437134, 1.0000044107437134], "min" : [-1.0000042915344238, -1.0000044107437134, -1.0000044107437134], "name" : "NORMAL"}, {"bufferView" : 0, "byteOffset" : 22956, "componentType" : 5123, "count" : 4080, "type" : "SCALAR", "max" : [3394], "min" : [0]}, {"bufferView" : 2, "byteOffset" : 0, "componentType" : 5126, "count" : 3395, "type" : "VEC3", "max" : [-312.00494384765625, 10.156667709350586, 296.1461181640625], "min" : [-314.8877868652344, -0.525672972202301, 285.4637451171875], "name" : "POSITION"}, {"bufferView" : 2, "byteOffset" : 12, "componentType" : 5126, "count" : 3395, "type" : "VEC2", "max" : [0, -0], "min" : [0, -0], "name" : "TEXCOORD_0"}, {"bufferView" : 2, "byteOffset" : 20, "componentType" : 5126, "count" : 3395, "type" : "VEC3", "max" : [1.0000042915344238, 0.999951183795929, 0.9999501705169678], "min" : [-1.0000042915344238, -0.9999545216560364, -0.9999554753303528], "name" : "NORMAL"}, {"bufferView" : 0, "byteOffset" : 31116, "componentType" : 5123, "count" : 4080, "type" : "SCALAR", "max" : [3394], "min" : [0]}, {"bufferView" : 3, "byteOffset" : 0, "componentType" : 5126, "count" : 3395, "type" : "VEC3", "max" : [-312.14349365234375, 9.144954681396484, 257.1623229980469], "min" : [-314.7492370605469, -0.5106059908866882, 247.5067596435547], "name" : "POSITION"}, {"bufferView" : 3, "byteOffset" : 12, "componentType" : 5126, "count" : 3395, "type" : "VEC2", "max" : [0, -0], "min" : [0, -0], "name" : "TEXCOORD_0"}, {"bufferView" : 3, "byteOffset" : 20, "componentType" : 5126, "count" : 3395, "type" : "VEC3", "max" : [1.0000042915344238, 0.999951183795929, 0.9999499917030334], "min" : [-1.0000042915344238, -0.9999544620513916, -0.999955415725708], "name" : "NORMAL"}, {"bufferView" : 0, "byteOffset" : 39276, "componentType" : 5123, "count" : 4080, "type" : "SCALAR", "max" : [3394], "min" : [0]}, {"bufferView" : 4, "byteOffset" : 0, "componentType" : 5126, "count" : 3395, "type" : "VEC3", "max" : [-339.253662109375, 10.156667709350586, 296.1461181640625], "min" : [-342.1361389160156, -0.525672972202301, 285.4637451171875], "name" : "POSITION"}, {"bufferView" : 4, "byteOffset" : 12, "componentType" : 5126, "count" : 3395, "type" : "VEC2", "max" : [0, -0], "min" : [0, -0], "name" : "TEXCOORD_0"}, {"bufferView" : 4, "byteOffset" : 20, "componentType" : 5126, "count" : 3395, "type" : "VEC3", "max" : [1.0000042915344238, 0.9999535083770752, 0.9999555349349976], "min" : [-1.0000042915344238, -0.9999521970748901, -0.999950110912323], "name" : "NORMAL"}, {"bufferView" : 0, "byteOffset" : 47436, "componentType" : 5123, "count" : 4080, "type" : "SCALAR", "max" : [3394], "min" : [0]}, {"bufferView" : 5, "byteOffset" : 0, "componentType" : 5126, "count" : 3395, "type" : "VEC3", "max" : [-339.3921813964844, 9.144954681396484, 257.1623229980469], "min" : [-341.9975891113281, -0.5106059908866882, 247.5067596435547], "name" : "POSITION"}, {"bufferView" : 5, "byteOffset" : 12, "componentType" : 5126, "count" : 3395, "type" : "VEC2", "max" : [0, -0], "min" : [0, -0], "name" : "TEXCOORD_0"}, {"bufferView" : 5, "byteOffset" : 20, "componentType" : 5126, "count" : 3395, "type" : "VEC3", "max" : [1.0000042915344238, 0.9999534487724304, 0.999955415725708], "min" : [-1.0000042915344238, -0.9999521970748901, -0.9999502301216125], "name" : "NORMAL"}], "asset" : {"generator" : "Aspose.3D 22.1", "version" : "2.0"}, "buffers" : [{"uri" : "data:application/octet-stream;base64,", "byteLength" : 853332}], "bufferViews" : [{"buffer" : 0, "byteOffset" : 0, "byteLength" : 55596, "target" : 34963}, {"buffer" : 0, "byteOffset" : 55600, "byteLength" : 275472, "byteStride" : 24, "target" : 34962}, {"buffer" : 0, "byteOffset" : 331076, "byteLength" : 130560, "byteStride" : 32, "target" : 34962}, {"buffer" : 0, "byteOffset" : 461640, "byteLength" : 130560, "byteStride" : 32, "target" : 34962}, {"buffer" : 0, "byteOffset" : 592204, "byteLength" : 130560, "byteStride" : 32, "target" : 34962}, {"buffer" : 0, "byteOffset" : 722768, "byteLength" : 130560, "byteStride" : 32, "target" : 34962}], "meshes" : [{"primitives" : [{"attributes" : {"POSITION" : 1, "NORMAL" : 2}, "indices" : 0, "mode" : 4}], "name" : ""}, {"primitives" : [{"attributes" : {"POSITION" : 4, "TEXCOORD_0" : 5, "NORMAL" : 6}, "indices" : 3, "mode" : 4}], "name" : ""}, {"primitives" : [{"attributes" : {"POSITION" : 8, "TEXCOORD_0" : 9, "NORMAL" : 10}, "indices" : 7, "mode" : 4}], "name" : ""}, {"primitives" : [{"attributes" : {"POSITION" : 12, "TEXCOORD_0" : 13, "NORMAL" : 14}, "indices" : 11, "mode" : 4}], "name" : ""}, {"primitives" : [{"attributes" : {"POSITION" : 16, "TEXCOORD_0" : 17, "NORMAL" : 18}, "indices" : 15, "mode" : 4}], "name" : ""}], "nodes" : [{"mesh" : 0, "name" : "CarBody"}, {"mesh" : 1, "name" : "CarBody WheelFrontLeft"}, {"mesh" : 2, "name" : "CarBody WheelBackLeft"}, {"mesh" : 3, "name" : "CarBody WheelFrontRight"}, {"mesh" : 4, "name" : "CarBody WheelBackRight"}], "scene" : 0, "scenes" : [{"nodes" : [0, 1, 2, 3, 4]}]}